<?xml version="1.0" encoding="UTF-8" standalone="no"?>
<!-- Created with Inkscape (http://www.inkscape.org/) -->

<svg
   xmlns:osb="http://www.openswatchbook.org/uri/2009/osb"
   xmlns:dc="http://purl.org/dc/elements/1.1/"
   xmlns:cc="http://creativecommons.org/ns#"
   xmlns:rdf="http://www.w3.org/1999/02/22-rdf-syntax-ns#"
   xmlns:svg="http://www.w3.org/2000/svg"
   xmlns="http://www.w3.org/2000/svg"
   xmlns:sodipodi="http://sodipodi.sourceforge.net/DTD/sodipodi-0.dtd"
   xmlns:inkscape="http://www.inkscape.org/namespaces/inkscape"
   width="508mm"
   height="285.75mm"
   viewBox="0 0 508 285.75"
   version="1.1"
   id="svg8"
   inkscape:version="0.92.3 (2405546, 2018-03-11)"
   sodipodi:docname="APT_hatter.svg"
   inkscape:export-filename="C:\Users\EA1370\Desktop\AdProTech_Hatter_FullHD.png"
   inkscape:export-xdpi="96"
   inkscape:export-ydpi="96">
  <defs
     id="defs2">
    <linearGradient
       inkscape:collect="always"
       id="linearGradient5137"
       osb:paint="gradient">
      <stop
         style="stop-color:#000037;stop-opacity:1;"
         offset="0"
         id="stop5133" />
      <stop
         style="stop-color:#000037;stop-opacity:0;"
         offset="1"
         id="stop5135" />
    </linearGradient>
  </defs>
  <sodipodi:namedview
     id="base"
     pagecolor="#ffffff"
     bordercolor="#666666"
     borderopacity="1.0"
     inkscape:pageopacity="0.0"
     inkscape:pageshadow="2"
     inkscape:zoom="0.45254834"
     inkscape:cx="906.38419"
     inkscape:cy="583.6618"
     inkscape:document-units="mm"
     inkscape:current-layer="layer1"
     showgrid="false"
     fit-margin-top="0"
     fit-margin-left="0"
     fit-margin-right="0"
     fit-margin-bottom="0"
     inkscape:window-width="1535"
     inkscape:window-height="830"
     inkscape:window-x="2184"
     inkscape:window-y="169"
     inkscape:window-maximized="0" />
  <metadata
     id="metadata5">
    <rdf:RDF>
      <cc:Work
         rdf:about="">
        <dc:format>image/svg+xml</dc:format>
        <dc:type
           rdf:resource="http://purl.org/dc/dcmitype/StillImage" />
        <dc:title></dc:title>
      </cc:Work>
    </rdf:RDF>
  </metadata>
  <g
     inkscape:label="1. réteg"
     inkscape:groupmode="layer"
     id="layer1"
     transform="translate(-23.434523,-829.69043)">
    <rect
       style="opacity:1;fill:#dcdcdc;fill-opacity:1;stroke:none;stroke-width:0.34720019;stroke-linecap:butt;stroke-linejoin:miter;stroke-miterlimit:4;stroke-dasharray:none;stroke-opacity:1;paint-order:fill markers stroke"
       id="rect4744"
       width="508"
       height="285.75"
       x="23.434523"
       y="829.69043" />
    <g
       id="g5413">
      <g
         transform="matrix(1.4758767,0,0,1.4758767,120.55,881.79672)"
         id="g4663">
        <path
           style="font-style:normal;font-variant:normal;font-weight:normal;font-stretch:normal;font-size:40px;line-height:125%;font-family:Impact;-inkscape-font-specification:Impact;text-align:start;letter-spacing:0px;word-spacing:0px;writing-mode:lr-tb;text-anchor:start;fill:#282828;fill-opacity:1;stroke:none"
           id="path3012"
           d="m 24.071504,41.602133 4.70704,31.62109 h -8.41797 l -0.41016,-5.68359 h -2.94922 l -0.48828,5.68359 H 7.9972939 l 4.1796801,-31.62109 z m -4.35546,20.33203 c -0.41668,-3.58072 -0.83335,-8.00128 -1.25,-13.26172 -0.83335,6.04169 -1.35418,10.46225 -1.5625,13.26172 z"
           inkscape:connector-curvature="0" />
        <path
           style="font-style:normal;font-variant:normal;font-weight:normal;font-stretch:normal;font-size:40px;line-height:125%;font-family:Impact;-inkscape-font-specification:Impact;text-align:start;letter-spacing:0px;word-spacing:0px;writing-mode:lr-tb;text-anchor:start;fill:#282828;fill-opacity:1;stroke:none"
           id="path3014"
           d="m 47.899634,41.602133 v 31.62109 h -7.89063 v -1.875 c -0.75521,0.78125 -1.54948,1.36719 -2.38281,1.75781 -0.83334,0.39063 -1.70573,0.58594 -2.61719,0.58594 -1.22396,0 -2.28516,-0.32226 -3.18359,-0.9668 -0.89844,-0.64453 -1.47461,-1.38997 -1.72851,-2.23632 -0.25391,-0.84635 -0.38086,-2.22656 -0.38086,-4.14063 v -12.1289 c 0,-1.99217 0.12695,-3.40493 0.38086,-4.23829 0.2539,-0.8333 0.83658,-1.56573 1.74804,-2.19726 0.91146,-0.63149 1.9987,-0.94724 3.26172,-0.94727 0.97656,3e-5 1.87174,0.17581 2.68555,0.52735 0.81379,0.35158 1.55272,0.87893 2.21679,1.58203 v -7.34375 z m -7.89063,12.22656 c -10e-6,-0.9505 -0.0814,-1.58852 -0.24414,-1.91406 -0.16277,-0.3255 -0.48503,-0.48826 -0.96679,-0.48828 -0.46876,2e-5 -0.78452,0.1465 -0.94727,0.43945 -0.16277,0.29299 -0.24415,0.94729 -0.24414,1.96289 v 12.69531 c -1e-5,1.0547 0.0781,1.74805 0.23438,2.08008 0.15624,0.33204 0.45572,0.49805 0.89843,0.49805 0.50781,0 0.84635,-0.18554 1.01563,-0.55664 0.16926,-0.37109 0.25389,-1.27929 0.2539,-2.72461 z"
           inkscape:connector-curvature="0" />
      </g>
      <g
         transform="matrix(1.4758767,0,0,1.4758767,120.55,881.79672)"
         id="g4656">
        <path
           style="font-style:normal;font-variant:normal;font-weight:normal;font-stretch:normal;font-size:40px;line-height:125%;font-family:Impact;-inkscape-font-specification:Impact;text-align:start;letter-spacing:0px;word-spacing:0px;writing-mode:lr-tb;text-anchor:start;fill:#ff8c00;fill-opacity:1;stroke:none"
           id="path3016"
           d="m 50.966044,41.602133 h 8.28125 c 2.23957,3e-5 3.96157,0.17581 5.16601,0.52734 1.20441,0.3516 2.10936,0.85941 2.71485,1.52344 0.60545,0.66409 1.0156,1.46813 1.23046,2.41211 0.21483,0.94404 0.32225,2.40562 0.32227,4.38476 v 2.75391 c -2e-5,2.01825 -0.20835,3.4896 -0.625,4.41406 -0.41669,0.9245 -1.18166,1.63413 -2.29492,2.12891 -1.1133,0.4948 -2.56838,0.7422 -4.36524,0.74219 h -2.20703 v 12.73437 h -8.22265 z m 8.22265,5.41015 v 8.04688 c 0.23437,0.013 0.43619,0.0195 0.60547,0.0195 0.7552,2e-5 1.27929,-0.18553 1.57227,-0.55664 0.29295,-0.37107 0.43944,-1.14256 0.43945,-2.31445 v -2.59766 c -10e-6,-1.0807 -0.16928,-1.78383 -0.50781,-2.10937 -0.33856,-0.3255 -1.04168,-0.48826 -2.10938,-0.48829 z"
           inkscape:connector-curvature="0" />
        <path
           style="font-style:normal;font-variant:normal;font-weight:normal;font-stretch:normal;font-size:40px;line-height:125%;font-family:Impact;-inkscape-font-specification:Impact;text-align:start;letter-spacing:0px;word-spacing:0px;writing-mode:lr-tb;text-anchor:start;fill:#ff8c00;fill-opacity:1;stroke:none"
           id="path3018"
           d="m 78.700414,47.305253 -0.3125,3.39844 c 1.14582,-2.43487 2.80598,-3.72393 4.98047,-3.86719 v 9.1211 c -1.44533,1e-5 -2.50652,0.19533 -3.18359,0.58593 -0.6771,0.39065 -1.09376,0.93426 -1.25,1.63086 -0.15626,0.69663 -0.23439,2.30145 -0.23438,4.81446 v 10.23437 h -7.89062 v -25.91797 z"
           inkscape:connector-curvature="0" />
        <path
           style="font-style:normal;font-variant:normal;font-weight:normal;font-stretch:normal;font-size:40px;line-height:125%;font-family:Impact;-inkscape-font-specification:Impact;text-align:start;letter-spacing:0px;word-spacing:0px;writing-mode:lr-tb;text-anchor:start;fill:#ff8c00;fill-opacity:1;stroke:none"
           id="path3020"
           d="m 102.95822,56.406823 v 6.34765 c -2e-5,2.33074 -0.1172,4.03972 -0.35156,5.12695 -0.23439,1.08725 -0.73569,2.10287 -1.50391,3.04688 -0.76824,0.94401 -1.754566,1.64063 -2.958976,2.08984 -1.20444,0.44922 -2.5879,0.67383 -4.15039,0.67383 -1.7448,0 -3.22266,-0.19206 -4.43359,-0.57617 -1.21095,-0.38411 -2.1517,-0.96354 -2.82227,-1.73828 -0.67057,-0.77474 -1.14909,-1.71224 -1.43555,-2.8125 -0.28646,-1.10026 -0.42968,-2.75064 -0.42968,-4.95117 v -6.64063 c 0,-2.40883 0.26041,-4.29034 0.78125,-5.64453 0.52083,-1.35414 1.45833,-2.44138 2.8125,-3.26172 1.35416,-0.82028 3.08593,-1.23044 5.19531,-1.23047 1.77082,3e-5 3.291,0.2637 4.56055,0.79102 1.26951,0.52737 2.249326,1.21422 2.939446,2.06055 0.69008,0.84637 1.16209,1.71877 1.41601,2.61718 0.25389,0.89846 0.38084,2.26565 0.38086,4.10157 z m -7.890616,-1.95313 c -1e-5,-1.3281 -0.0716,-2.16469 -0.21485,-2.50977 -0.14324,-0.34503 -0.44922,-0.51755 -0.91796,-0.51757 -0.46876,2e-5 -0.78126,0.17254 -0.9375,0.51757 -0.15626,0.34508 -0.23439,1.18167 -0.23438,2.50977 v 11.69922 c -10e-6,1.22396 0.0781,2.02149 0.23438,2.39258 0.15624,0.3711 0.46223,0.55664 0.91796,0.55664 0.46874,0 0.77799,-0.16927 0.92774,-0.50781 0.14973,-0.33854 0.2246,-1.06771 0.22461,-2.1875 z"
           inkscape:connector-curvature="0" />
      </g>
      <g
         transform="matrix(1.4758767,0,0,1.4758767,120.55,881.79672)"
         id="g4647">
        <path
           style="font-style:normal;font-variant:normal;font-weight:normal;font-stretch:normal;font-size:40px;line-height:125%;font-family:Impact;-inkscape-font-specification:Impact;text-align:start;letter-spacing:0px;word-spacing:0px;writing-mode:lr-tb;text-anchor:start;fill:#282828;fill-opacity:1;stroke:none"
           id="path3022"
           d="m 122.37229,41.602133 v 6.32812 h -4.88282 v 25.29297 h -8.22265 v -25.29297 h -4.86328 v -6.32812 z"
           inkscape:connector-curvature="0" />
        <path
           style="font-style:normal;font-variant:normal;font-weight:normal;font-stretch:normal;font-size:40px;line-height:125%;font-family:Impact;-inkscape-font-specification:Impact;text-align:start;letter-spacing:0px;word-spacing:0px;writing-mode:lr-tb;text-anchor:start;fill:#282828;fill-opacity:1;stroke:none"
           id="path3024"
           d="m 141.884,60.723223 h -10.21484 v 5.60547 c -1e-5,1.17188 0.0846,1.92709 0.25391,2.26563 0.16926,0.33854 0.49478,0.50781 0.97656,0.50781 0.59895,0 0.99934,-0.22461 1.20117,-0.67383 0.20181,-0.44921 0.30272,-1.31835 0.30274,-2.60742 v -3.41797 h 7.48046 v 1.91406 c -10e-6,1.60157 -0.10093,2.83204 -0.30273,3.69141 -0.20184,0.85938 -0.67385,1.77735 -1.41602,2.7539 -0.7422,0.97657 -1.68295,1.70899 -2.82226,2.19727 -1.13934,0.48828 -2.56837,0.73242 -4.28711,0.73242 -1.66668,0 -3.13803,-0.24088 -4.41406,-0.72265 -1.27605,-0.48177 -2.26889,-1.14258 -2.97852,-1.98243 -0.70964,-0.83984 -1.20117,-1.76432 -1.47461,-2.77343 -0.27344,-1.00911 -0.41015,-2.47721 -0.41015,-4.4043 v -7.55859 c 0,-2.26561 0.30598,-4.05272 0.91796,-5.36133 0.61198,-1.30857 1.61458,-2.31118 3.00782,-3.00782 1.39322,-0.69658 2.99478,-1.04489 4.80468,-1.04492 2.21353,3e-5 4.0397,0.41995 5.47852,1.25977 1.43879,0.83987 2.4479,1.95315 3.02734,3.33984 0.57941,1.38674 0.86913,3.33661 0.86914,5.84961 z m -7.91015,-4.21875 v -1.89453 c -1e-5,-1.34113 -0.0716,-2.20701 -0.21485,-2.59766 -0.14324,-0.3906 -0.4362,-0.58591 -0.8789,-0.58593 -0.54689,2e-5 -0.88543,0.16603 -1.01563,0.49804 -0.13021,0.33206 -0.19532,1.22724 -0.19531,2.68555 v 1.89453 z"
           inkscape:connector-curvature="0" />
        <path
           style="font-style:normal;font-variant:normal;font-weight:normal;font-stretch:normal;font-size:40px;line-height:125%;font-family:Impact;-inkscape-font-specification:Impact;text-align:start;letter-spacing:0px;word-spacing:0px;writing-mode:lr-tb;text-anchor:start;fill:#282828;fill-opacity:1;stroke:none"
           id="path3026"
           d="m 161.92307,57.090413 h -7.44141 v -2.98828 c -1e-5,-1.04165 -0.0847,-1.74803 -0.25391,-2.11914 -0.16928,-0.37107 -0.48178,-0.55662 -0.9375,-0.55664 -0.45573,2e-5 -0.76172,0.16278 -0.91796,0.48828 -0.15626,0.32554 -0.23439,1.05471 -0.23438,2.1875 v 12.22656 c -1e-5,0.92449 0.11718,1.61784 0.35156,2.08008 0.23437,0.46224 0.57942,0.69336 1.03516,0.69336 0.53384,0 0.89517,-0.24088 1.08398,-0.72266 0.18879,-0.48176 0.2832,-1.39322 0.28321,-2.73437 v -3.08594 h 7.03125 c -0.013,2.07032 -0.0879,3.62305 -0.22461,4.6582 -0.13674,1.03516 -0.57294,2.09636 -1.3086,3.1836 -0.73569,1.08724 -1.69597,1.90755 -2.88086,2.46093 -1.1849,0.55339 -2.64975,0.83008 -4.39453,0.83008 -2.22657,0 -3.99089,-0.38086 -5.29297,-1.14258 -1.30208,-0.76171 -2.2233,-1.82942 -2.76367,-3.20312 -0.54036,-1.37369 -0.81054,-3.32356 -0.81054,-5.84961 v -7.36328 c 0,-2.2005 0.22135,-3.86066 0.66406,-4.98047 0.4427,-1.11977 1.38671,-2.11912 2.83203,-2.99805 1.44531,-0.87888 3.20312,-1.31833 5.27344,-1.31836 2.05728,3e-5 3.81509,0.43623 5.27343,1.3086 1.45832,0.87242 2.42837,1.97268 2.91016,3.30078 0.48175,1.32814 0.72264,3.20965 0.72266,5.64453 z"
           inkscape:connector-curvature="0" />
        <path
           style="font-style:normal;font-variant:normal;font-weight:normal;font-stretch:normal;font-size:40px;line-height:125%;font-family:Impact;-inkscape-font-specification:Impact;text-align:start;letter-spacing:0px;word-spacing:0px;writing-mode:lr-tb;text-anchor:start;fill:#282828;fill-opacity:1;stroke:none"
           id="path3028"
           d="m 172.13791,41.602133 v 7.10937 c 0.67707,-0.62497 1.4095,-1.09372 2.19727,-1.40625 0.78774,-0.31247 1.63084,-0.46872 2.52929,-0.46875 1.3802,3e-5 2.55533,0.35159 3.52539,1.05469 0.97004,0.70315 1.56249,1.5137 1.77735,2.43164 0.21482,0.91799 0.32224,2.59442 0.32226,5.0293 v 17.87109 h -7.89062 v -18.24219 c -1e-5,-1.51039 -0.0749,-2.48044 -0.22461,-2.91015 -0.14975,-0.42967 -0.48504,-0.64451 -1.00586,-0.64453 -0.48178,2e-5 -0.8073,0.22137 -0.97656,0.66406 -0.16928,0.44273 -0.25392,1.32163 -0.25391,2.63672 v 18.49609 h -7.89062 v -31.62109 z"
           inkscape:connector-curvature="0" />
      </g>
      <g
         transform="matrix(1.4758767,0,0,1.4758767,120.55,881.79672)"
         id="g4609">
        <g
           style="font-style:normal;font-variant:normal;font-weight:normal;font-stretch:normal;font-size:7px;line-height:125%;font-family:Impact;-inkscape-font-specification:Impact;text-align:center;letter-spacing:0px;word-spacing:0px;writing-mode:lr-tb;text-anchor:middle;fill:#282828;fill-opacity:1;stroke:none"
           id="text3839"
           transform="translate(7.9972939,3.8215147)">
          <path
             id="path3036"
             d="m 35.617676,73.451515 0.82373,5.533692 h -1.473144 l -0.07178,-0.994629 h -0.516113 l -0.08545,0.994629 h -1.490235 l 0.731446,-5.533692 z m -0.762207,3.558106 c -0.07292,-0.626625 -0.145835,-1.400225 -0.21875,-2.320801 -0.145835,1.057295 -0.236981,1.830894 -0.273438,2.320801 z"
             inkscape:connector-curvature="0" />
          <path
             id="path3038"
             d="m 39.787598,73.451515 v 5.533692 h -1.38086 v -0.328125 c -0.132163,0.136719 -0.27116,0.239258 -0.416992,0.307617 -0.145835,0.06836 -0.298504,0.102539 -0.458008,0.102539 -0.214193,0 -0.399903,-0.0564 -0.557129,-0.16919 -0.157227,-0.112792 -0.258057,-0.243245 -0.30249,-0.391357 -0.04443,-0.148111 -0.06665,-0.389648 -0.06665,-0.724609 v -2.122559 c 0,-0.348629 0.02222,-0.595862 0.06665,-0.741699 0.04443,-0.145829 0.146403,-0.274003 0.305908,-0.384522 0.159505,-0.110509 0.349772,-0.165767 0.570801,-0.165771 0.170897,4e-6 0.327554,0.03077 0.469971,0.09229 0.142413,0.06153 0.271726,0.153813 0.387939,0.276855 V 73.45152 Z m -1.38086,2.139649 c -2e-6,-0.166338 -0.01424,-0.277991 -0.04272,-0.334961 -0.02848,-0.05696 -0.08488,-0.08545 -0.16919,-0.08545 -0.08203,4e-6 -0.13729,0.02564 -0.165771,0.0769 -0.02848,0.05127 -0.04273,0.165775 -0.04272,0.343506 v 2.221679 c -10e-7,0.184572 0.01367,0.305909 0.04102,0.364014 0.02734,0.05811 0.07975,0.08716 0.157226,0.08716 0.08887,1e-6 0.14811,-0.03247 0.177735,-0.09741 0.02962,-0.06494 0.04443,-0.223876 0.04443,-0.476807 z"
             inkscape:connector-curvature="0" />
          <path
             id="path3040"
             d="m 43.137207,74.449562 -0.645996,4.535645 h -1.80127 l -0.693847,-4.535645 h 1.233886 l 0.386231,3.308594 c 0.02962,-0.241535 0.07975,-0.833982 0.150391,-1.777344 0.04101,-0.526364 0.08659,-1.03678 0.136718,-1.53125 z"
             inkscape:connector-curvature="0" />
          <path
             id="path3042"
             d="m 44.57959,76.206398 h -1.29541 v -0.304199 c 0,-0.350908 0.04044,-0.621497 0.121338,-0.811768 0.08089,-0.190263 0.243244,-0.358313 0.48706,-0.50415 0.243814,-0.145829 0.560546,-0.218746 0.950195,-0.21875 0.467121,4e-6 0.819171,0.08261 1.056153,0.247803 0.236976,0.165206 0.379391,0.368005 0.427246,0.608398 0.04785,0.240401 0.07177,0.735436 0.07178,1.485107 v 2.276368 H 45.05469 v -0.403321 c -0.08431,0.161784 -0.193116,0.283122 -0.326416,0.364014 -0.133302,0.08089 -0.292237,0.121338 -0.476806,0.121338 -0.241538,0 -0.463136,-0.06779 -0.664795,-0.203369 -0.201661,-0.135579 -0.30249,-0.432373 -0.30249,-0.890381 v -0.372559 c 0,-0.339516 0.05355,-0.570799 0.160644,-0.693847 0.107096,-0.123045 0.372558,-0.2666 0.796387,-0.430664 0.453449,-0.177732 0.696124,-0.297361 0.728027,-0.358887 0.0319,-0.06152 0.04785,-0.186846 0.04785,-0.375977 -2e-6,-0.236975 -0.01766,-0.391354 -0.05298,-0.463135 -0.03532,-0.07177 -0.094,-0.107662 -0.176025,-0.107666 -0.09343,4e-6 -0.151532,0.0302 -0.174316,0.09058 -0.02279,0.06039 -0.03418,0.217044 -0.03418,0.46997 z m 0.4375,0.62207 c -0.22103,0.161786 -0.349204,0.297365 -0.384522,0.406739 -0.03532,0.109376 -0.05298,0.266603 -0.05298,0.471679 -2e-6,0.234702 0.01538,0.386232 0.04614,0.45459 0.03076,0.06836 0.09171,0.10254 0.182862,0.102539 0.08659,10e-7 0.142983,-0.02677 0.169189,-0.08032 0.0262,-0.05355 0.0393,-0.194254 0.03931,-0.422119 z"
             inkscape:connector-curvature="0" />
          <path
             id="path3044"
             d="m 48.277832,74.449562 -0.02393,0.416992 c 0.100259,-0.166337 0.222736,-0.291092 0.367432,-0.374267 0.144692,-0.08317 0.311602,-0.124752 0.500732,-0.124756 0.236977,4e-6 0.430661,0.05583 0.581055,0.16748 0.150387,0.111658 0.24723,0.252365 0.290527,0.422119 0.04329,0.169763 0.06494,0.452885 0.06494,0.849366 v 3.178711 h -1.38086 v -3.141114 c -2e-6,-0.312171 -0.01026,-0.502437 -0.03076,-0.5708 -0.02051,-0.06836 -0.07748,-0.102536 -0.170899,-0.10254 -0.09798,4e-6 -0.159507,0.03931 -0.18457,0.11792 -0.02507,0.07862 -0.0376,0.288822 -0.0376,0.630616 v 3.065918 H 46.87304 v -4.535645 z"
             inkscape:connector-curvature="0" />
          <path
             id="path3046"
             d="m 53.589355,76.161964 h -1.302246 v -0.522949 c -2e-6,-0.182288 -0.01481,-0.305904 -0.04443,-0.370849 -0.02963,-0.06494 -0.08431,-0.09741 -0.164063,-0.09741 -0.07975,4e-6 -0.133302,0.02849 -0.160644,0.08545 -0.02735,0.05697 -0.04102,0.184574 -0.04102,0.382812 v 2.139649 c -1e-6,0.161785 0.02051,0.283122 0.06152,0.364013 0.04101,0.08089 0.101398,0.121339 0.181152,0.121338 0.09342,1e-6 0.156655,-0.04215 0.189697,-0.126465 0.03304,-0.08431 0.04956,-0.243814 0.04956,-0.478515 v -0.540039 h 1.230468 c -0.0023,0.362306 -0.01538,0.634034 -0.03931,0.815185 -0.02393,0.181153 -0.100264,0.366863 -0.229004,0.557129 -0.128746,0.190267 -0.296796,0.333822 -0.50415,0.430664 -0.20736,0.09684 -0.463707,0.145264 -0.769043,0.145264 -0.38965,0 -0.698406,-0.06665 -0.92627,-0.199951 -0.227865,-0.133301 -0.389079,-0.32015 -0.483643,-0.560547 -0.09456,-0.240396 -0.141845,-0.581623 -0.141845,-1.023682 v -1.288574 c 0,-0.385088 0.03874,-0.675615 0.116211,-0.871582 0.07747,-0.19596 0.242675,-0.370845 0.495605,-0.524658 0.252929,-0.153804 0.560546,-0.230709 0.922852,-0.230713 0.360024,4e-6 0.667641,0.07634 0.922851,0.229004 0.255206,0.152673 0.424965,0.345219 0.509278,0.577636 0.08431,0.232426 0.126461,0.56169 0.126464,0.987793 z"
             inkscape:connector-curvature="0" />
          <path
             id="path3048"
             d="m 57.123535,76.797707 h -1.787598 v 0.980957 c -1e-6,0.205079 0.01481,0.33724 0.04443,0.396484 0.02962,0.05925 0.08659,0.08887 0.170899,0.08887 0.104815,1e-6 0.174884,-0.03931 0.210205,-0.11792 0.03532,-0.07861 0.05298,-0.230712 0.05298,-0.456299 v -0.598144 h 1.309082 v 0.334961 c -3e-6,0.280275 -0.01766,0.495606 -0.05298,0.645996 -0.03532,0.150391 -0.117923,0.311036 -0.247803,0.481934 -0.129886,0.170898 -0.294518,0.299072 -0.493897,0.384521 -0.199383,0.08545 -0.449465,0.128174 -0.750244,0.128174 -0.291668,0 -0.549155,-0.04216 -0.772461,-0.126465 -0.223308,-0.08431 -0.397054,-0.199951 -0.52124,-0.346924 -0.124186,-0.146972 -0.210205,-0.308756 -0.258057,-0.485351 -0.04785,-0.176594 -0.07178,-0.433511 -0.07178,-0.770752 v -1.322754 c 0,-0.396481 0.05355,-0.709225 0.160645,-0.938233 0.107096,-0.228999 0.282551,-0.404455 0.526367,-0.526367 0.243814,-0.121903 0.524087,-0.182857 0.84082,-0.182861 0.387368,4e-6 0.706948,0.07349 0.95874,0.220459 0.251788,0.146977 0.428383,0.341801 0.529786,0.584472 0.101396,0.24268 0.152096,0.583907 0.152099,1.023682 z m -1.384277,-0.738282 v -0.331543 c -2e-6,-0.234697 -0.01253,-0.386226 -0.0376,-0.454589 -0.02507,-0.06836 -0.07634,-0.102536 -0.153808,-0.10254 -0.09571,4e-6 -0.15495,0.02906 -0.177735,0.08716 -0.02279,0.05811 -0.03418,0.214766 -0.03418,0.46997 v 0.331543 z"
             inkscape:connector-curvature="0" />
          <path
             id="path3050"
             d="m 60.719238,73.451515 v 5.533692 h -1.380859 v -0.328125 c -0.132163,0.136719 -0.271161,0.239258 -0.416992,0.307617 -0.145835,0.06836 -0.298504,0.102539 -0.458008,0.102539 -0.214194,0 -0.399903,-0.0564 -0.557129,-0.16919 -0.157227,-0.112792 -0.258057,-0.243245 -0.30249,-0.391357 -0.04443,-0.148111 -0.06665,-0.389648 -0.06665,-0.724609 v -2.122559 c 0,-0.348629 0.02222,-0.595862 0.06665,-0.741699 0.04443,-0.145829 0.146402,-0.274003 0.305908,-0.384522 0.159504,-0.110509 0.349771,-0.165767 0.570801,-0.165771 0.170897,4e-6 0.327554,0.03077 0.46997,0.09229 0.142414,0.06153 0.271727,0.153813 0.38794,0.276855 V 73.45152 Z m -1.380859,2.139649 c -2e-6,-0.166338 -0.01424,-0.277991 -0.04273,-0.334961 -0.02848,-0.05696 -0.08488,-0.08545 -0.169189,-0.08545 -0.08203,4e-6 -0.13729,0.02564 -0.165772,0.0769 -0.02848,0.05127 -0.04273,0.165775 -0.04272,0.343506 v 2.221679 c -2e-6,0.184572 0.01367,0.305909 0.04102,0.364014 0.02734,0.05811 0.07975,0.08716 0.157227,0.08716 0.08886,1e-6 0.14811,-0.03247 0.177734,-0.09741 0.02962,-0.06494 0.04443,-0.223876 0.04443,-0.476807 z"
             inkscape:connector-curvature="0" />
          <path
             id="path3052"
             d="m 62.486328,73.451515 h 1.449219 c 0.391925,6e-6 0.693275,0.03077 0.904053,0.09229 0.210771,0.06153 0.369137,0.150396 0.475097,0.266602 0.105954,0.116216 0.177731,0.256922 0.215332,0.422119 0.03759,0.165206 0.05639,0.420984 0.0564,0.767334 v 0.481934 c -4e-6,0.353193 -0.03646,0.61068 -0.109375,0.772461 -0.07292,0.161786 -0.20679,0.285972 -0.401612,0.372558 -0.194826,0.08659 -0.449465,0.129885 -0.763916,0.129883 h -0.38623 v 2.228516 h -1.438965 z m 1.438965,0.946778 v 1.408203 c 0.04101,0.0023 0.07633,0.0034 0.105957,0.0034 0.132159,3e-6 0.223875,-0.03247 0.275146,-0.09741 0.05127,-0.06494 0.0769,-0.199948 0.0769,-0.40503 v -0.45459 c -2e-6,-0.189123 -0.02963,-0.31217 -0.08887,-0.36914 -0.05925,-0.05696 -0.182294,-0.08545 -0.369141,-0.08545 z"
             inkscape:connector-curvature="0" />
          <path
             id="path3054"
             d="m 67.339844,74.449562 -0.05469,0.594727 c 0.200519,-0.426103 0.491046,-0.651688 0.871582,-0.676758 v 1.596191 c -0.252932,3e-6 -0.438641,0.03418 -0.557129,0.102539 -0.118491,0.06836 -0.191408,0.163496 -0.21875,0.285401 -0.02734,0.12191 -0.04102,0.402753 -0.04102,0.842529 v 1.791016 h -1.38086 v -4.535645 z"
             inkscape:connector-curvature="0" />
          <path
             id="path3056"
             d="m 71.584961,76.042336 v 1.110839 c -3e-6,0.407879 -0.02051,0.706951 -0.06152,0.897217 -0.04102,0.190268 -0.128746,0.368002 -0.263183,0.533203 -0.134443,0.165202 -0.30705,0.28711 -0.517822,0.365723 -0.210777,0.07861 -0.452883,0.11792 -0.726319,0.11792 -0.30534,0 -0.563966,-0.03361 -0.775879,-0.10083 -0.211915,-0.06722 -0.376546,-0.16862 -0.493896,-0.304199 -0.117351,-0.135579 -0.201091,-0.299642 -0.251221,-0.492188 -0.05013,-0.192545 -0.07519,-0.481363 -0.07519,-0.866455 v -1.162109 c 0,-0.421547 0.04557,-0.750811 0.136719,-0.987793 0.09114,-0.236975 0.255207,-0.427242 0.492187,-0.570801 0.236978,-0.14355 0.540038,-0.215328 0.90918,-0.215332 0.309894,4e-6 0.575925,0.04615 0.798096,0.138428 0.222165,0.09229 0.393633,0.212488 0.514404,0.360595 0.120765,0.148116 0.203366,0.300785 0.247803,0.458008 0.04443,0.15723 0.06665,0.396488 0.06665,0.717774 z m -1.380859,-0.341797 c -2e-6,-0.232419 -0.01253,-0.378822 -0.0376,-0.439209 -0.02507,-0.06038 -0.07861,-0.09057 -0.160645,-0.09058 -0.08203,4e-6 -0.13672,0.0302 -0.164062,0.09058 -0.02734,0.06039 -0.04102,0.20679 -0.04102,0.439209 v 2.047363 c -10e-7,0.214194 0.01367,0.353761 0.04102,0.418701 0.02734,0.06494 0.08089,0.09741 0.160644,0.09741 0.08203,10e-7 0.136148,-0.02962 0.162354,-0.08887 0.0262,-0.05924 0.0393,-0.186848 0.03931,-0.382812 z"
             inkscape:connector-curvature="0" />
          <path
             id="path3058"
             d="m 75.180664,74.449562 v 3.493164 c -3e-6,0.47168 -0.01083,0.776449 -0.03247,0.914307 -0.02165,0.137858 -0.09855,0.283691 -0.230713,0.4375 -0.132164,0.153808 -0.316164,0.271158 -0.552001,0.352051 -0.235843,0.08089 -0.532636,0.121337 -0.890381,0.121337 -0.43978,0 -0.79297,-0.07463 -1.059571,-0.223877 -0.266602,-0.149251 -0.40446,-0.442627 -0.413574,-0.880126 h 1.339844 c -2e-6,0.20052 0.07291,0.300781 0.21875,0.300781 0.104816,0 0.174314,-0.03076 0.208496,-0.09228 0.03418,-0.06152 0.05127,-0.190267 0.05127,-0.386231 v -0.341797 c -0.118491,0.107097 -0.243247,0.187989 -0.374267,0.242676 -0.131024,0.05469 -0.268312,0.08203 -0.411865,0.08203 -0.248374,10e-7 -0.452882,-0.05013 -0.613526,-0.15039 -0.160645,-0.10026 -0.270589,-0.231852 -0.329834,-0.394776 -0.05924,-0.162922 -0.08887,-0.394774 -0.08887,-0.695556 V 75.58091 c 0,-0.43066 0.07747,-0.740556 0.232422,-0.929688 0.154947,-0.189123 0.390787,-0.283687 0.70752,-0.283691 0.173175,4e-6 0.330971,0.03532 0.473388,0.105957 0.142414,0.07064 0.269448,0.176599 0.381104,0.317871 l 0.09912,-0.341797 z m -1.384277,1.203125 c -2e-6,-0.207353 -0.01196,-0.339514 -0.03589,-0.396484 -0.02393,-0.05696 -0.07691,-0.08545 -0.158936,-0.08545 -0.07975,4e-6 -0.13615,0.03247 -0.169189,0.09741 -0.03304,0.06495 -0.04956,0.193118 -0.04956,0.384521 v 1.524414 c -10e-7,0.202801 0.01253,0.334393 0.0376,0.394776 0.02506,0.06038 0.07747,0.09058 0.157227,0.09058 0.09114,10e-7 0.150388,-0.03646 0.177734,-0.109375 0.02734,-0.07291 0.04101,-0.238117 0.04102,-0.495606 z"
             inkscape:connector-curvature="0" />
          <path
             id="path3060"
             d="m 77.060547,74.449562 -0.05469,0.594727 c 0.200519,-0.426103 0.491046,-0.651688 0.871582,-0.676758 v 1.596191 c -0.252931,3e-6 -0.438641,0.03418 -0.557129,0.102539 -0.118491,0.06836 -0.191407,0.163496 -0.21875,0.285401 -0.02734,0.12191 -0.04102,0.402753 -0.04102,0.842529 v 1.791016 h -1.38086 v -4.535645 z"
             inkscape:connector-curvature="0" />
          <path
             id="path3062"
             d="m 79.415527,76.206398 h -1.29541 v -0.304199 c 0,-0.350908 0.04045,-0.621497 0.121338,-0.811768 0.08089,-0.190263 0.243245,-0.358313 0.487061,-0.50415 0.243814,-0.145829 0.560545,-0.218746 0.950195,-0.21875 0.46712,4e-6 0.819171,0.08261 1.056152,0.247803 0.236976,0.165206 0.379392,0.368005 0.427246,0.608398 0.04785,0.240401 0.07177,0.735436 0.07178,1.485107 v 2.276368 h -1.343262 v -0.403321 c -0.08431,0.161784 -0.193117,0.283122 -0.326416,0.364014 -0.133302,0.08089 -0.292238,0.121338 -0.476807,0.121338 -0.241537,0 -0.463135,-0.06779 -0.664795,-0.203369 -0.20166,-0.135579 -0.30249,-0.432373 -0.30249,-0.890381 v -0.372559 c 0,-0.339516 0.05355,-0.570799 0.160645,-0.693847 0.107096,-0.123045 0.372558,-0.2666 0.796386,-0.430664 0.453449,-0.177732 0.696125,-0.297361 0.728028,-0.358887 0.0319,-0.06152 0.04785,-0.186846 0.04785,-0.375977 -2e-6,-0.236975 -0.01766,-0.391354 -0.05298,-0.463135 -0.03532,-0.07177 -0.094,-0.107662 -0.176026,-0.107666 -0.09343,4e-6 -0.151531,0.0302 -0.174316,0.09058 -0.02279,0.06039 -0.03418,0.217044 -0.03418,0.46997 z m 0.4375,0.62207 c -0.22103,0.161786 -0.349204,0.297365 -0.384521,0.406739 -0.03532,0.109376 -0.05298,0.266603 -0.05298,0.471679 -10e-7,0.234702 0.01538,0.386232 0.04614,0.45459 0.03076,0.06836 0.09171,0.10254 0.182861,0.102539 0.08659,10e-7 0.142983,-0.02677 0.16919,-0.08032 0.0262,-0.05355 0.0393,-0.194254 0.03931,-0.422119 z"
             inkscape:connector-curvature="0" />
          <path
             id="path3064"
             d="m 83.072754,74.449562 -0.02393,0.430664 c 0.107095,-0.170894 0.234699,-0.299068 0.382813,-0.384521 0.148109,-0.08545 0.316729,-0.12817 0.505859,-0.128174 0.369138,4e-6 0.659665,0.170903 0.871582,0.512695 0.116208,-0.170894 0.24723,-0.299068 0.393066,-0.384521 0.14583,-0.08545 0.307614,-0.12817 0.485352,-0.128174 0.234696,4e-6 0.42895,0.05697 0.582764,0.170898 0.153803,0.113937 0.252355,0.253504 0.295654,0.418701 0.04329,0.165206 0.06494,0.433516 0.06494,0.804932 v 3.223145 h -1.339843 v -2.956543 c -4e-6,-0.387367 -0.01311,-0.627194 -0.03931,-0.719483 -0.02621,-0.09228 -0.08716,-0.138424 -0.182861,-0.138428 -0.09799,4e-6 -0.161218,0.04558 -0.189698,0.136719 -0.02849,0.09115 -0.04273,0.331547 -0.04272,0.721192 v 2.956543 h -1.339844 v -2.881348 c -2e-6,-0.444333 -0.01083,-0.710934 -0.03247,-0.799805 -0.02165,-0.08886 -0.08146,-0.133297 -0.179443,-0.133301 -0.06153,4e-6 -0.113934,0.02336 -0.157227,0.07007 -0.0433,0.04672 -0.06722,0.103682 -0.07178,0.170898 -0.0046,0.06722 -0.0068,0.210209 -0.0068,0.428955 v 3.144532 h -1.339844 v -4.535645 z"
             inkscape:connector-curvature="0" />
          <path
             id="path3066"
             d="m 88.473145,74.449562 -0.02393,0.430664 c 0.107094,-0.170894 0.234698,-0.299068 0.382812,-0.384521 0.14811,-0.08545 0.31673,-0.12817 0.50586,-0.128174 0.369137,4e-6 0.659664,0.170903 0.871582,0.512695 0.116207,-0.170894 0.247229,-0.299068 0.393066,-0.384521 0.14583,-0.08545 0.307613,-0.12817 0.485352,-0.128174 0.234696,4e-6 0.42895,0.05697 0.582763,0.170898 0.153804,0.113937 0.252355,0.253504 0.295655,0.418701 0.04329,0.165206 0.06494,0.433516 0.06494,0.804932 v 3.223145 h -1.339844 v -2.956543 c -4e-6,-0.387367 -0.01311,-0.627194 -0.03931,-0.719483 -0.02621,-0.09228 -0.08716,-0.138424 -0.182862,-0.138428 -0.09799,4e-6 -0.161217,0.04558 -0.189697,0.136719 -0.02849,0.09115 -0.04273,0.331547 -0.04272,0.721192 v 2.956543 h -1.339843 v -2.881348 c -2e-6,-0.444333 -0.01083,-0.710934 -0.03247,-0.799805 -0.02165,-0.08886 -0.08146,-0.133297 -0.179443,-0.133301 -0.06153,4e-6 -0.113934,0.02336 -0.157227,0.07007 -0.0433,0.04672 -0.06722,0.103682 -0.07178,0.170898 -0.0046,0.06722 -0.0068,0.210209 -0.0068,0.428955 v 3.144532 h -1.339844 v -4.535645 z"
             inkscape:connector-curvature="0" />
          <path
             id="path3068"
             d="m 93.931641,73.451515 v 0.721192 h -1.421875 v -0.721192 z m 0,0.998047 v 4.535645 h -1.421875 v -4.535645 z"
             inkscape:connector-curvature="0" />
          <path
             id="path3070"
             d="m 95.828613,74.449562 -0.02393,0.416992 c 0.100259,-0.166337 0.222736,-0.291092 0.367432,-0.374267 0.144692,-0.08317 0.311603,-0.124752 0.500733,-0.124756 0.236976,4e-6 0.430661,0.05583 0.581054,0.16748 0.150388,0.111658 0.24723,0.252365 0.290528,0.422119 0.04329,0.169763 0.06494,0.452885 0.06494,0.849366 v 3.178711 h -1.380859 v -3.141114 c -2e-6,-0.312171 -0.01026,-0.502437 -0.03076,-0.5708 -0.02051,-0.06836 -0.07748,-0.102536 -0.170899,-0.10254 -0.09798,4e-6 -0.159506,0.03931 -0.18457,0.11792 -0.02507,0.07862 -0.0376,0.288822 -0.0376,0.630616 v 3.065918 h -1.380859 v -4.535645 z"
             inkscape:connector-curvature="0" />
          <path
             id="path3072"
             d="m 101.22559,74.449562 v 3.493164 c -1e-5,0.47168 -0.0108,0.776449 -0.0325,0.914307 -0.0217,0.137858 -0.0986,0.283691 -0.23072,0.4375 -0.13216,0.153808 -0.31616,0.271158 -0.552,0.352051 -0.23584,0.08089 -0.532635,0.121337 -0.89038,0.121337 -0.43978,0 -0.79297,-0.07463 -1.059571,-0.223877 -0.266602,-0.149251 -0.40446,-0.442627 -0.413574,-0.880126 h 1.339844 c -2e-6,0.20052 0.07291,0.300781 0.21875,0.300781 0.104816,0 0.174314,-0.03076 0.208496,-0.09228 0.03418,-0.06152 0.05127,-0.190267 0.05127,-0.386231 v -0.341797 c -0.118491,0.107097 -0.243247,0.187989 -0.374267,0.242676 -0.131024,0.05469 -0.268312,0.08203 -0.411865,0.08203 -0.248374,10e-7 -0.452882,-0.05013 -0.613526,-0.15039 -0.160645,-0.10026 -0.270589,-0.231852 -0.329834,-0.394776 -0.05924,-0.162922 -0.08887,-0.394774 -0.08887,-0.695556 V 75.58091 c 0,-0.43066 0.07747,-0.740556 0.232422,-0.929688 0.154947,-0.189123 0.390787,-0.283687 0.707519,-0.283691 0.173176,4e-6 0.330972,0.03532 0.473389,0.105957 0.142414,0.07064 0.269448,0.176599 0.381104,0.317871 l 0.09912,-0.341797 z m -1.384281,1.203125 c -2e-6,-0.207353 -0.01196,-0.339514 -0.03589,-0.396484 -0.02393,-0.05696 -0.07691,-0.08545 -0.158936,-0.08545 -0.07975,4e-6 -0.13615,0.03247 -0.169189,0.09741 -0.03304,0.06495 -0.04956,0.193118 -0.04956,0.384521 v 1.524414 c -10e-7,0.202801 0.01253,0.334393 0.0376,0.394776 0.02506,0.06038 0.07747,0.09058 0.157227,0.09058 0.09114,10e-7 0.150388,-0.03646 0.177734,-0.109375 0.02734,-0.07291 0.04101,-0.238117 0.04102,-0.495606 z"
             inkscape:connector-curvature="0" />
          <path
             id="path3074"
             d="m 105.89453,73.451515 v 1.107422 h -0.85449 v 4.42627 h -1.43897 v -4.42627 H 102.75 v -1.107422 z"
             inkscape:connector-curvature="0" />
          <path
             id="path3076"
             d="m 109.30908,76.797707 h -1.7876 v 0.980957 c 0,0.205079 0.0148,0.33724 0.0444,0.396484 0.0296,0.05925 0.0866,0.08887 0.1709,0.08887 0.10481,1e-6 0.17488,-0.03931 0.2102,-0.11792 0.0353,-0.07861 0.053,-0.230712 0.053,-0.456299 v -0.598144 h 1.30908 v 0.334961 c 0,0.280275 -0.0177,0.495606 -0.053,0.645996 -0.0353,0.150391 -0.11792,0.311036 -0.2478,0.481934 -0.12988,0.170898 -0.29452,0.299072 -0.4939,0.384521 -0.19938,0.08545 -0.44946,0.128174 -0.75024,0.128174 -0.29167,0 -0.54915,-0.04216 -0.77246,-0.126465 -0.22331,-0.08431 -0.39706,-0.199951 -0.52124,-0.346924 -0.12419,-0.146972 -0.21021,-0.308756 -0.25806,-0.485351 -0.0478,-0.176594 -0.0718,-0.433511 -0.0718,-0.770752 v -1.322754 c -10e-6,-0.396481 0.0535,-0.709225 0.16064,-0.938233 0.1071,-0.228999 0.28255,-0.404455 0.52637,-0.526367 0.24381,-0.121903 0.52408,-0.182857 0.84082,-0.182861 0.38736,4e-6 0.70694,0.07349 0.95874,0.220459 0.25178,0.146977 0.42838,0.341801 0.52978,0.584472 0.1014,0.24268 0.1521,0.583907 0.1521,1.023682 z m -1.38428,-0.738282 v -0.331543 c 0,-0.234697 -0.0125,-0.386226 -0.0376,-0.454589 -0.0251,-0.06836 -0.0763,-0.102536 -0.15381,-0.10254 -0.0957,4e-6 -0.15495,0.02906 -0.17774,0.08716 -0.0228,0.05811 -0.0342,0.214766 -0.0342,0.46997 v 0.331543 z"
             inkscape:connector-curvature="0" />
          <path
             id="path3078"
             d="m 112.81592,76.161964 h -1.30225 v -0.522949 c 0,-0.182288 -0.0148,-0.305904 -0.0444,-0.370849 -0.0296,-0.06494 -0.0843,-0.09741 -0.16406,-0.09741 -0.0798,4e-6 -0.13331,0.02849 -0.16065,0.08545 -0.0273,0.05697 -0.041,0.184574 -0.041,0.382812 v 2.139649 c -1e-5,0.161785 0.0205,0.283122 0.0615,0.364013 0.041,0.08089 0.1014,0.121339 0.18115,0.121338 0.0934,1e-6 0.15666,-0.04215 0.1897,-0.126465 0.033,-0.08431 0.0496,-0.243814 0.0496,-0.478515 v -0.540039 h 1.23047 c -0.002,0.362306 -0.0154,0.634034 -0.0393,0.815185 -0.0239,0.181153 -0.10026,0.366863 -0.229,0.557129 -0.12875,0.190267 -0.2968,0.333822 -0.50415,0.430664 -0.20736,0.09684 -0.46371,0.145264 -0.76905,0.145264 -0.38965,0 -0.6984,-0.06665 -0.92627,-0.199951 -0.22786,-0.133301 -0.38907,-0.32015 -0.48364,-0.560547 -0.0946,-0.240396 -0.14184,-0.581623 -0.14184,-1.023682 v -1.288574 c 0,-0.385088 0.0387,-0.675615 0.11621,-0.871582 0.0775,-0.19596 0.24267,-0.370845 0.4956,-0.524658 0.25293,-0.153804 0.56055,-0.230709 0.92285,-0.230713 0.36003,4e-6 0.66765,0.07634 0.92286,0.229004 0.2552,0.152673 0.42496,0.345219 0.50927,0.577636 0.0843,0.232426 0.12646,0.56169 0.12647,0.987793 z"
             inkscape:connector-curvature="0" />
          <path
             id="path3080"
             d="m 114.60352,73.451515 v 1.244141 c 0.11848,-0.109371 0.24666,-0.191402 0.38452,-0.246094 0.13785,-0.05468 0.2854,-0.08203 0.44262,-0.08203 0.24154,4e-6 0.44719,0.06153 0.61695,0.18457 0.16975,0.123051 0.27343,0.264897 0.31103,0.425537 0.0376,0.160649 0.0564,0.454024 0.0564,0.880127 v 3.127442 h -1.38086 v -3.192383 c 0,-0.26432 -0.0131,-0.434079 -0.0393,-0.509278 -0.0262,-0.07519 -0.0849,-0.112789 -0.17602,-0.112793 -0.0843,4e-6 -0.14128,0.03874 -0.1709,0.116211 -0.0296,0.07748 -0.0444,0.231286 -0.0444,0.461426 v 3.236817 h -1.38086 v -5.533692 z"
             inkscape:connector-curvature="0" />
          <path
             id="path3082"
             d="m 118.2915,74.449562 -0.0239,0.416992 c 0.10026,-0.166337 0.22273,-0.291092 0.36743,-0.374267 0.14469,-0.08317 0.3116,-0.124752 0.50073,-0.124756 0.23698,4e-6 0.43066,0.05583 0.58106,0.16748 0.15038,0.111658 0.24723,0.252365 0.29052,0.422119 0.0433,0.169763 0.0649,0.452885 0.0649,0.849366 v 3.178711 h -1.38086 v -3.141114 c -10e-6,-0.312171 -0.0103,-0.502437 -0.0308,-0.5708 -0.0205,-0.06836 -0.0775,-0.102536 -0.17089,-0.10254 -0.098,4e-6 -0.15951,0.03931 -0.18457,0.11792 -0.0251,0.07862 -0.0376,0.288822 -0.0376,0.630616 v 3.065918 h -1.38086 v -4.535645 z"
             inkscape:connector-curvature="0" />
          <path
             id="path3084"
             d="m 123.6748,76.042336 v 1.110839 c 0,0.407879 -0.0205,0.706951 -0.0615,0.897217 -0.041,0.190268 -0.12875,0.368002 -0.26318,0.533203 -0.13445,0.165202 -0.30705,0.28711 -0.51782,0.365723 -0.21078,0.07861 -0.45289,0.11792 -0.72632,0.11792 -0.30534,0 -0.56397,-0.03361 -0.77588,-0.10083 -0.21192,-0.06722 -0.37655,-0.16862 -0.4939,-0.304199 -0.11735,-0.135579 -0.20109,-0.299642 -0.25122,-0.492188 -0.0501,-0.192545 -0.0752,-0.481363 -0.0752,-0.866455 v -1.162109 c 0,-0.421547 0.0456,-0.750811 0.13671,-0.987793 0.0911,-0.236975 0.25521,-0.427242 0.49219,-0.570801 0.23698,-0.14355 0.54004,-0.215328 0.90918,-0.215332 0.3099,4e-6 0.57593,0.04615 0.7981,0.138428 0.22216,0.09229 0.39363,0.212488 0.5144,0.360595 0.12077,0.148116 0.20337,0.300785 0.2478,0.458008 0.0444,0.15723 0.0667,0.396488 0.0667,0.717774 z m -1.38085,-0.341797 c -10e-6,-0.232419 -0.0125,-0.378822 -0.0376,-0.439209 -0.0251,-0.06038 -0.0786,-0.09057 -0.16065,-0.09058 -0.082,4e-6 -0.13672,0.0302 -0.16406,0.09058 -0.0273,0.06039 -0.041,0.20679 -0.041,0.439209 v 2.047363 c -1e-5,0.214194 0.0137,0.353761 0.041,0.418701 0.0273,0.06494 0.0809,0.09741 0.16065,0.09741 0.082,10e-7 0.13614,-0.02962 0.16235,-0.08887 0.0262,-0.05924 0.0393,-0.186848 0.0393,-0.382812 z"
             inkscape:connector-curvature="0" />
          <path
             id="path3086"
             d="m 125.55469,73.451515 v 5.533692 h -1.42188 v -5.533692 z"
             inkscape:connector-curvature="0" />
          <path
             id="path3088"
             d="m 129.1709,76.042336 v 1.110839 c 0,0.407879 -0.0205,0.706951 -0.0615,0.897217 -0.041,0.190268 -0.12874,0.368002 -0.26318,0.533203 -0.13444,0.165202 -0.30705,0.28711 -0.51782,0.365723 -0.21078,0.07861 -0.45288,0.11792 -0.72632,0.11792 -0.30534,0 -0.56397,-0.03361 -0.77588,-0.10083 -0.21191,-0.06722 -0.37654,-0.16862 -0.49389,-0.304199 -0.11736,-0.135579 -0.2011,-0.299642 -0.25123,-0.492188 -0.0501,-0.192545 -0.0752,-0.481363 -0.0752,-0.866455 v -1.162109 c 0,-0.421547 0.0456,-0.750811 0.13672,-0.987793 0.0911,-0.236975 0.25521,-0.427242 0.49219,-0.570801 0.23697,-0.14355 0.54003,-0.215328 0.90918,-0.215332 0.30989,4e-6 0.57592,0.04615 0.79809,0.138428 0.22217,0.09229 0.39363,0.212488 0.51441,0.360595 0.12076,0.148116 0.20336,0.300785 0.2478,0.458008 0.0444,0.15723 0.0666,0.396488 0.0666,0.717774 z m -1.38086,-0.341797 c 0,-0.232419 -0.0125,-0.378822 -0.0376,-0.439209 -0.0251,-0.06038 -0.0786,-0.09057 -0.16064,-0.09058 -0.082,4e-6 -0.13672,0.0302 -0.16407,0.09058 -0.0273,0.06039 -0.041,0.20679 -0.041,0.439209 v 2.047363 c 0,0.214194 0.0137,0.353761 0.041,0.418701 0.0273,0.06494 0.0809,0.09741 0.16065,0.09741 0.082,10e-7 0.13615,-0.02962 0.16235,-0.08887 0.0262,-0.05924 0.0393,-0.186848 0.0393,-0.382812 z"
             inkscape:connector-curvature="0" />
          <path
             id="path3090"
             d="m 132.7666,74.449562 v 3.493164 c 0,0.47168 -0.0108,0.776449 -0.0325,0.914307 -0.0216,0.137858 -0.0985,0.283691 -0.23071,0.4375 -0.13217,0.153808 -0.31617,0.271158 -0.552,0.352051 -0.23585,0.08089 -0.53264,0.121337 -0.89038,0.121337 -0.43978,0 -0.79297,-0.07463 -1.05958,-0.223877 -0.2666,-0.149251 -0.40446,-0.442627 -0.41357,-0.880126 h 1.33984 c 0,0.20052 0.0729,0.300781 0.21875,0.300781 0.10482,0 0.17432,-0.03076 0.2085,-0.09228 0.0342,-0.06152 0.0513,-0.190267 0.0513,-0.386231 v -0.341797 c -0.11849,0.107097 -0.24325,0.187989 -0.37427,0.242676 -0.13102,0.05469 -0.26831,0.08203 -0.41186,0.08203 -0.24838,10e-7 -0.45288,-0.05013 -0.61353,-0.15039 -0.16064,-0.10026 -0.27059,-0.231852 -0.32983,-0.394776 -0.0592,-0.162922 -0.0889,-0.394774 -0.0889,-0.695556 V 75.58091 c 0,-0.43066 0.0775,-0.740556 0.23242,-0.929688 0.15495,-0.189123 0.39079,-0.283687 0.70752,-0.283691 0.17318,4e-6 0.33097,0.03532 0.47339,0.105957 0.14241,0.07064 0.26945,0.176599 0.3811,0.317871 l 0.0991,-0.341797 z m -1.38428,1.203125 c 0,-0.207353 -0.012,-0.339514 -0.0359,-0.396484 -0.0239,-0.05696 -0.0769,-0.08545 -0.15894,-0.08545 -0.0797,4e-6 -0.13615,0.03247 -0.16919,0.09741 -0.033,0.06495 -0.0496,0.193118 -0.0496,0.384521 v 1.524414 c 0,0.202801 0.0125,0.334393 0.0376,0.394776 0.0251,0.06038 0.0775,0.09058 0.15722,0.09058 0.0911,10e-7 0.15039,-0.03646 0.17774,-0.109375 0.0273,-0.07291 0.041,-0.238117 0.041,-0.495606 z"
             inkscape:connector-curvature="0" />
          <path
             id="path3092"
             d="m 134.6875,73.451515 v 0.721192 h -1.42188 v -0.721192 z m 0,0.998047 v 4.535645 h -1.42188 v -4.535645 z"
             inkscape:connector-curvature="0" />
          <path
             id="path3094"
             d="m 138.30713,76.797707 h -1.7876 v 0.980957 c 0,0.205079 0.0148,0.33724 0.0444,0.396484 0.0296,0.05925 0.0866,0.08887 0.1709,0.08887 0.10482,1e-6 0.17489,-0.03931 0.21021,-0.11792 0.0353,-0.07861 0.053,-0.230712 0.053,-0.456299 v -0.598144 h 1.30908 v 0.334961 c 0,0.280275 -0.0177,0.495606 -0.053,0.645996 -0.0353,0.150391 -0.11792,0.311036 -0.2478,0.481934 -0.12989,0.170898 -0.29452,0.299072 -0.4939,0.384521 -0.19938,0.08545 -0.44946,0.128174 -0.75024,0.128174 -0.29167,0 -0.54916,-0.04216 -0.77246,-0.126465 -0.22331,-0.08431 -0.39706,-0.199951 -0.52124,-0.346924 -0.12419,-0.146972 -0.21021,-0.308756 -0.25806,-0.485351 -0.0479,-0.176594 -0.0718,-0.433511 -0.0718,-0.770752 v -1.322754 c 0,-0.396481 0.0536,-0.709225 0.16065,-0.938233 0.10709,-0.228999 0.28255,-0.404455 0.52636,-0.526367 0.24382,-0.121903 0.52409,-0.182857 0.84082,-0.182861 0.38737,4e-6 0.70695,0.07349 0.95874,0.220459 0.25179,0.146977 0.42839,0.341801 0.52979,0.584472 0.1014,0.24268 0.1521,0.583907 0.1521,1.023682 z m -1.38428,-0.738282 v -0.331543 c 0,-0.234697 -0.0125,-0.386226 -0.0376,-0.454589 -0.0251,-0.06836 -0.0763,-0.102536 -0.1538,-0.10254 -0.0957,4e-6 -0.15495,0.02906 -0.17774,0.08716 -0.0228,0.05811 -0.0342,0.214766 -0.0342,0.46997 v 0.331543 z"
             inkscape:connector-curvature="0" />
          <path
             id="path3096"
             d="m 141.58154,75.898781 h -1.22363 v -0.246094 c 0,-0.209632 -0.012,-0.342363 -0.0359,-0.398193 -0.0239,-0.05582 -0.0837,-0.08374 -0.17944,-0.08374 -0.0775,4e-6 -0.13558,0.02564 -0.17432,0.0769 -0.0387,0.05127 -0.0581,0.128177 -0.0581,0.230713 -10e-6,0.139 0.01,0.24097 0.0291,0.305908 0.0194,0.06494 0.0775,0.136152 0.17432,0.213623 0.0968,0.07748 0.29565,0.19027 0.59643,0.338379 0.40104,0.195966 0.66422,0.380536 0.78955,0.553711 0.12532,0.173179 0.18799,0.424969 0.18799,0.755371 0,0.369141 -0.0479,0.647706 -0.14355,0.835693 -0.0957,0.187989 -0.25579,0.332683 -0.48023,0.434082 -0.22445,0.1014 -0.49504,0.1521 -0.81177,0.1521 -0.35091,0 -0.65112,-0.05469 -0.90063,-0.164063 -0.24951,-0.109374 -0.42098,-0.257486 -0.51441,-0.444336 -0.0934,-0.186848 -0.14013,-0.4694 -0.14013,-0.847656 v -0.21875 h 1.22363 v 0.28711 c 0,0.243816 0.0154,0.402181 0.0461,0.475097 0.0308,0.07292 0.0917,0.109376 0.18286,0.109375 0.098,10e-7 0.16634,-0.02449 0.20508,-0.07349 0.0387,-0.04899 0.0581,-0.152099 0.0581,-0.309326 0,-0.21647 -0.0251,-0.35205 -0.0752,-0.406739 -0.0524,-0.05469 -0.32015,-0.216469 -0.80322,-0.485351 -0.4056,-0.227863 -0.65283,-0.434649 -0.7417,-0.620361 -0.0889,-0.185707 -0.1333,-0.406166 -0.1333,-0.661377 0,-0.362301 0.0479,-0.629472 0.14355,-0.801514 0.0957,-0.172034 0.25806,-0.304765 0.48706,-0.398193 0.22901,-0.09342 0.49504,-0.140133 0.7981,-0.140137 0.30078,4e-6 0.55656,0.03817 0.76733,0.114502 0.21078,0.07634 0.37256,0.177169 0.48536,0.30249 0.11279,0.12533 0.18115,0.24154 0.20507,0.348633 0.0239,0.1071 0.0359,0.27458 0.0359,0.502441 z"
             inkscape:connector-curvature="0" />
        </g>
      </g>
      <g
         id="g5360">
        <path
           style="fill:#282828;fill-opacity:1;stroke:none;stroke-width:1.25722814"
           id="rect3098-4-9-8-2-4-7-1-2-0-1"
           d="m 414.50611,933.30718 c 2e-5,-3.47071 -4.78992,-6.26481 -10.73969,-6.26484 l -19.43378,-2e-5 c 0,3.77877 10e-6,7.55759 2e-5,11.33636 2e-5,3.47073 4.78991,6.26485 10.7397,6.26483 l 19.43374,-3e-5 z"
           inkscape:connector-curvature="0" />
        <path
           style="fill:#ff8c00;fill-opacity:1;stroke:none;stroke-width:1.25722814"
           id="rect3098-4-9-8-2-4-7-1-2-8-9-7"
           d="m 362.95976,931.96471 c -1e-5,-2.72699 3.19329,-4.92235 7.1598,-4.92237 l 12.95585,-2e-5 c 0,2.96904 -10e-6,5.9381 -10e-6,8.90715 -10e-6,2.72699 -3.19327,4.92237 -7.1598,4.92236 l -12.95583,-3e-5 z"
           inkscape:connector-curvature="0" />
        <path
           style="fill:#282828;fill-opacity:1;stroke:none;stroke-width:1.25722814"
           id="rect3098-4-9-8-2-4-7-1-2-5-4-1"
           d="m 383.0754,907.16111 c 10e-6,-5.70189 -4.59034,-10.29219 -10.29221,-10.29221 l -18.62404,-5e-5 c 0,6.20799 2e-5,12.41603 3e-5,18.62403 1e-5,5.70191 4.59031,10.29224 10.29221,10.29221 l 18.624,-5e-5 z"
           inkscape:connector-curvature="0" />
        <path
           style="fill:#ff8c00;fill-opacity:1;stroke:none;stroke-width:1.25722814"
           id="rect3098-54-8-7-2-1-1-8-8-5"
           d="m 397.75405,888.06825 c -7.44412,-4e-5 -13.42139,6.02436 -13.42141,13.45943 v 24.25741 h 24.29543 c 7.44412,-4e-5 13.42144,-5.94835 13.42141,-13.38341 v -24.33343 z"
           inkscape:connector-curvature="0" />
        <path
           style="fill:#dcdcdc;fill-opacity:1;stroke:none;stroke-width:1.25722814"
           id="rect3098-54-8-7-2-1-1-8-8-2-2"
           d="m 396.68947,894.40907 c -5.45904,-3e-5 -9.84237,4.60995 -9.84239,10.29938 v 18.56219 h 17.81664 c 5.45903,-3e-5 9.84239,-4.55179 9.84238,-10.24121 v -18.62036 z"
           inkscape:connector-curvature="0" />
      </g>
    </g>
  </g>
</svg>
